:SAMPLES-PER-SECOND 30
:FULLY-SPECIFIED
:DEGREES
496
root  -36.7232 38.8617 -23.3219 -166.536 -87.0248 -170.791
RightUpLeg  -45.7002 -12.4601 -2.0656
RightLeg  8.14917 -5.25748 6.375
RightFoot  15.764 0.331859 -0.925471
RightToes  0.000482159 0.542163 -0.142577
Spine  57.5972 -3.91899 6.98837
Spine1  12.2742 0.910128 -2.90125
HEad  -21.9091 -5.3205 -3.01268
LeftShoulder1  9.13086 -23.2253 -27.9326
LeftArm  -28.3994 -62.3133 -23.7951
LeftForeArm  -7.5712 -13.6805 -5.1185
LeftHand  -0.25398 0.0180481 5.50724
RightShoulder  4.37033 12.3632 21.2152
RightArm  -34.1423 44.7854 4.07404
RightForeArm  -44.1001 21.7876 6.84938
RightHand  -0.00915777 -4.9056 8.02523
LeftUpLeg  -52.9708 23.7927 -19.7251
LeftLeg  22.4209 -5.61228 -2.2085
LeftFoot  4.03302 -1.6745 12.1753
LeftToes  1.06247e-005 4.65855e-005 -8.18504e-006
497
root  -37.056 38.7888 -23.906 -176.954 -88.2795 -158.53
RightUpLeg  -49.7156 -16.9817 3.9473
RightLeg  11.8719 -0.268073 5.98351
RightFoot  13.87 0.621293 -2.34096
RightToes  0.000482159 0.542163 -0.142577
Spine  59.8177 -4.62884 7.47485
Spine1  11.5928 0.709157 -3.08442
HEad  -23.6093 -5.15906 -2.77389
LeftShoulder1  8.62107 -23.1724 -26.0378
LeftArm  -34.4924 -65.0572 -19.4457
LeftForeArm  -8.06197 -13.7109 -4.50179
LeftHand  -0.25398 0.0180481 5.50724
RightShoulder  4.29472 12.949 19.6641
RightArm  -38.9947 46.4178 -0.0390463
RightForeArm  -41.5038 20.0292 6.78632
RightHand  0.116342 -3.63714 9.83975
LeftUpLeg  -54.7927 22.2621 -18.5398
LeftLeg  23.5614 -5.15353 -2.12421
LeftFoot  3.55648 -1.51766 11.4018
LeftToes  1.06247e-005 4.65855e-005 -8.18504e-006
498
root  -37.3778 38.6795 -24.4907 142.851 -89.159 -116.642
RightUpLeg  -54.2671 -21.0578 11.0837
RightLeg  15.3905 4.9675 5.15848
RightFoot  12.3547 0.778752 -3.3026
RightToes  0.000482159 0.542163 -0.142577
Spine  61.8503 -5.26302 7.87651
Spine1  10.8719 0.5462 -3.44614
HEad  -24.7429 -4.97875 -2.05039
LeftShoulder1  8.23133 -23.2597 -24.4091
LeftArm  -42.1878 -67.1285 -13.2068
LeftForeArm  -7.86578 -14.2691 -3.83963
LeftHand  -0.25398 0.0180481 5.50724
RightShoulder  4.2126 13.4933 18.2382
RightArm  -44.2931 47.4986 -3.63759
RightForeArm  -37.6623 18.3696 6.55157
RightHand  0.359719 -1.61074 11.5071
LeftUpLeg  -56.7493 21.1375 -17.4726
LeftLeg  24.9368 -4.85499 -2.1256
LeftFoot  3.00069 -1.35344 10.577
LeftToes  1.06247e-005 4.65855e-005 -8.18504e-006
499
root  -37.7064 38.5492 -25.0405 81.0957 -88.9697 -53.0929
RightUpLeg  -59.0492 -23.5968 17.6527
RightLeg  18.6955 9.30011 4.5878
RightFoot  10.6173 0.946768 -4.50324
RightToes  0.000482159 0.542163 -0.142577
Spine  63.4686 -5.72694 8.19155
Spine1  10.2144 0.47698 -4.04436
HEad  -25.6595 -4.73932 -1.17958
LeftShoulder1  7.83113 -23.2759 -22.8192
LeftArm  -50.5687 -68.7825 -5.64105
LeftForeArm  -7.21916 -14.8686 -3.35617
LeftHand  -0.25398 0.0180481 5.50724
RightShoulder  4.12146 14.0312 16.8473
RightArm  -49.4253 48.079 -6.92436
RightForeArm  -33.7388 16.6703 6.11396
RightHand  0.691361 0.678801 13.143
LeftUpLeg  -59.1289 20.7897 -17.1053
LeftLeg  26.4669 -4.79756 -2.25684
LeftFoot  2.25652 -1.15981 9.58718
LeftToes  1.06247e-005 4.65855e-005 -8.18504e-006
500
root  -38.0412 38.4176 -25.5315 67.0247 -88.334 -37.0963
RightUpLeg  -62.8135 -24.1369 21.8255
RightLeg  21.3728 11.1828 4.54359
RightFoot  8.76038 1.09737 -5.83931
RightToes  0.000482159 0.542163 -0.142577
Spine  64.7686 -5.92636 8.2827
Spine1  9.76124 0.534324 -4.53743
HEad  -26.4456 -4.49971 -0.716437
LeftShoulder1  7.37966 -23.109 -21.2218
LeftArm  -59.6166 -70.1832 3.20553
LeftForeArm  -6.90249 -14.8704 -2.92661
LeftHand  -0.25398 0.0180481 5.50724
RightShoulder  4.02627 14.6211 15.4366
RightArm  -53.6384 48.3207 -10.5078
RightForeArm  -31.2605 14.9467 5.61038
RightHand  1.02063 2.70753 14.3089
LeftUpLeg  -61.9478 21.3003 -17.8822
LeftLeg  27.9033 -4.6363 -2.31787
LeftFoot  1.40276 -1.0215 9.05432
LeftToes  1.06247e-005 4.65855e-005 -8.18504e-006
501
root  -38.3727 38.2978 -25.9601 65.2711 -87.7682 -33.3809
RightUpLeg  -65.198 -23.43 23.6166
RightLeg  23.0915 10.63 4.71
RightFoot  7.36689 1.1649 -6.7479
RightToes  0.000482159 0.542163 -0.142577
Spine  65.891 -5.92913 8.19252
Spine1  9.40681 0.666956 -4.77698
HEad  -26.8708 -4.31987 -0.779346
LeftShoulder1  6.94162 -22.8412 -19.7566
LeftArm  -69.3422 -70.9288 12.759
LeftForeArm  -6.77791 -14.5063 -2.34445
LeftHand  -0.25398 0.0180481 5.50724
RightShoulder  3.90191 15.1717 13.9834
RightArm  -56.9245 48.5047 -14.3056
RightForeArm  -30.1516 12.9842 5.1067
RightHand  1.31462 4.76027 14.5632
LeftUpLeg  -64.9705 22.365 -19.7015
LeftLeg  28.9605 -4.25168 -2.20106
LeftFoot  0.575268 -0.976887 9.3074
LeftToes  1.06247e-005 4.65855e-005 -8.18504e-006
502
root  -38.7029 38.1997 -26.3345 65.4949 -87.3291 -31.6629
RightUpLeg  -67.4298 -22.898 25.5308
RightLeg  24.2894 10.3117 4.83348
RightFoot  6.37764 1.22177 -7.54279
RightToes  0.000482159 0.542163 -0.142577
Spine  66.8366 -5.86586 8.12297
Spine1  8.88861 0.818996 -4.99373
HEad  -26.8503 -4.19845 -0.974268
LeftShoulder1  6.58949 -22.6087 -18.5674
LeftArm  -77.6612 -70.7985 20.8117
LeftForeArm  -6.05326 -14.527 -1.83381
LeftHand  -0.25398 0.0180481 5.50724
RightShoulder  3.76719 15.6279 12.656
RightArm  -59.6496 48.5045 -17.7324
RightForeArm  -29.2251 10.8339 4.4643
RightHand  1.62826 7.25921 14.3507
LeftUpLeg  -67.9377 23.5827 -22.0754
LeftLeg  29.5998 -4.17719 -2.21921
LeftFoot  -0.101196 -0.960689 9.74105
LeftToes  1.06247e-005 4.65855e-005 -8.18504e-006
